<?xml version="1.0" encoding="UTF-8" standalone="no"?>
<!-- Uploaded to: SVG Repo, www.svgrepo.com, Generator: SVG Repo Mixer Tools -->

<svg
   fill="#000000"
   width="800px"
   height="800px"
   viewBox="0 0 52 52"
   enable-background="new 0 0 52 52"
   xml:space="preserve"
   version="1.1"
   id="svg1"
   sodipodi:docname="drag_handle.svg"
   inkscape:version="1.4.2 (ebf0e940d0, 2025-05-08)"
   xmlns:inkscape="http://www.inkscape.org/namespaces/inkscape"
   xmlns:sodipodi="http://sodipodi.sourceforge.net/DTD/sodipodi-0.dtd"
   xmlns="http://www.w3.org/2000/svg"
   xmlns:svg="http://www.w3.org/2000/svg"><defs
   id="defs1" /><sodipodi:namedview
   id="namedview1"
   pagecolor="#ffffff"
   bordercolor="#000000"
   borderopacity="0.25"
   inkscape:showpageshadow="2"
   inkscape:pageopacity="0.0"
   inkscape:pagecheckerboard="0"
   inkscape:deskcolor="#d1d1d1"
   inkscape:zoom="1.08125"
   inkscape:cx="400"
   inkscape:cy="400"
   inkscape:window-width="2560"
   inkscape:window-height="1052"
   inkscape:window-x="0"
   inkscape:window-y="0"
   inkscape:window-maximized="1"
   inkscape:current-layer="svg1" />
<g
   id="g1"
   style="fill:#a9b1d6;fill-opacity:1">
	<path
   d="M20,4c2.2,0,4,1.8,4,4s-1.8,4-4,4s-4-1.8-4-4S17.8,4,20,4z M32,4c2.2,0,4,1.8,4,4   s-1.8,4-4,4s-4-1.8-4-4S29.8,4,32,4z M20,16c2.2,0,4,1.8,4,4s-1.8,4-4,4s-4-1.8-4-4S17.8,16,20,16z M32,16c2.2,0,4,1.8,4,4   s-1.8,4-4,4s-4-1.8-4-4S29.8,16,32,16z M20,28c2.2,0,4,1.8,4,4s-1.8,4-4,4s-4-1.8-4-4S17.8,28,20,28z M32,28c2.2,0,4,1.8,4,4   s-1.8,4-4,4s-4-1.8-4-4S29.8,28,32,28z M20,40c2.2,0,4,1.8,4,4s-1.8,4-4,4s-4-1.8-4-4S17.8,40,20,40z M32,40c2.2,0,4,1.8,4,4   s-1.8,4-4,4s-4-1.8-4-4S29.8,40,32,40z"
   id="path1"
   style="fill:#a9b1d6;fill-opacity:1" />
</g>
</svg>
